<svg width="2148" height="511" viewBox="0 0 2148 511" fill="none" xmlns="http://www.w3.org/2000/svg">
<g filter="url(#filter0_d_63_2)">
<rect x="644.733" y="25.002" width="392" height="25" transform="rotate(179.679 644.733 25.002)" fill="#93DAFE"/>
<path d="M4.00411 253.597C3.23026 115.528 114.53 2.97316 252.599 2.19931C390.668 1.42545 503.222 112.725 503.996 250.794C504.77 388.863 393.47 501.418 255.401 502.191C117.332 502.965 4.77797 391.666 4.00411 253.597Z" fill="#93DAFE"/>
<path d="M29.0033 253.456C28.3069 129.194 128.477 27.8953 252.739 27.1988C377.001 26.5023 478.3 126.672 478.996 250.934C479.693 375.196 379.523 476.495 255.261 477.192C130.999 477.888 29.6998 377.718 29.0033 253.456Z" fill="#192C76"/>
</g>
<g filter="url(#filter1_d_63_2)">
<rect x="645.462" y="75.1526" width="391.723" height="25" transform="rotate(179.679 645.462 75.1526)" fill="#FF7403"/>
<path d="M53.7266 253.356C53.1076 142.901 142.147 52.8576 252.603 52.2386C363.058 51.6195 453.101 140.659 453.72 251.114C454.339 361.57 365.3 451.613 254.844 452.232C144.389 452.851 54.3457 363.812 53.7266 253.356Z" fill="#FF7403"/>
<path d="M78.5862 253.077C78.0445 156.428 155.954 77.6403 252.603 77.0986C349.251 76.5569 428.039 154.467 428.581 251.115C429.122 347.763 351.213 426.551 254.564 427.093C157.916 427.635 79.1279 349.725 78.5862 253.077Z" fill="#192C76"/>
</g>
<g filter="url(#filter2_d_63_2)">
<rect x="645.463" y="125.003" width="391.725" height="25" transform="rotate(179.679 645.463 125.003)" fill="white"/>
<path d="M103.446 253.038C102.981 170.196 169.761 102.664 252.603 102.199C335.444 101.735 402.977 168.515 403.441 251.356C403.905 334.198 337.126 401.73 254.284 402.194C171.443 402.659 103.91 335.879 103.446 253.038Z" fill="white"/>
<path d="M128.446 252.898C128.059 183.863 183.709 127.586 252.743 127.199C321.778 126.812 378.055 182.462 378.442 251.496C378.829 320.531 323.179 376.808 254.145 377.195C185.11 377.582 128.833 321.932 128.446 252.898Z" fill="#192C76"/>
</g>
<g filter="url(#filter3_d_63_2)">
<path d="M180.689 212.203C179.289 210.003 177.989 207.003 176.789 203.203C175.589 199.403 174.989 195.403 174.989 191.203C174.989 183.403 176.689 177.803 180.089 174.403C183.689 171.003 188.289 169.303 193.889 169.303L324.689 169.303C326.089 171.503 327.389 174.503 328.589 178.303C329.789 182.103 330.389 186.103 330.389 190.303C330.389 198.103 328.589 203.703 324.989 207.103C321.589 210.503 317.089 212.203 311.489 212.203L278.189 212.203L278.189 350.803C275.989 351.403 272.489 352.003 267.689 352.603C263.089 353.203 258.489 353.503 253.889 353.503C249.289 353.503 245.189 353.103 241.589 352.303C238.189 351.703 235.289 350.503 232.889 348.703C230.489 346.903 228.689 344.403 227.489 341.203C226.289 338.003 225.689 333.803 225.689 328.603L225.689 212.203L180.689 212.203Z" fill="white"/>
</g>
<g filter="url(#filter4_d_63_2)">
<path d="M594.702 254.2C593.302 252 592.002 249 590.802 245.2C589.602 241.4 589.002 237.4 589.002 233.2C589.002 225.4 590.702 219.8 594.102 216.4C597.702 213 602.302 211.3 607.902 211.3H738.702C740.102 213.5 741.402 216.5 742.602 220.3C743.802 224.1 744.402 228.1 744.402 232.3C744.402 240.1 742.602 245.7 739.002 249.1C735.602 252.5 731.102 254.2 725.502 254.2H692.202V392.8C690.002 393.4 686.502 394 681.702 394.6C677.102 395.2 672.502 395.5 667.902 395.5C663.302 395.5 659.202 395.1 655.602 394.3C652.202 393.7 649.302 392.5 646.902 390.7C644.502 388.9 642.702 386.4 641.502 383.2C640.302 380 639.702 375.8 639.702 370.6V254.2H594.702ZM758.284 250.3C760.284 249.7 763.384 249.1 767.584 248.5C771.984 247.9 776.484 247.6 781.084 247.6C785.484 247.6 789.384 247.9 792.784 248.5C796.384 249.1 799.384 250.3 801.784 252.1C804.184 253.9 805.984 256.4 807.184 259.6C808.584 262.6 809.284 266.6 809.284 271.6V336.1C809.284 344.3 811.284 350.2 815.284 353.8C819.284 357.2 825.084 358.9 832.684 358.9C837.284 358.9 840.984 358.5 843.784 357.7C846.784 356.9 849.084 356.1 850.684 355.3V250.3C852.684 249.7 855.784 249.1 859.984 248.5C864.384 247.9 868.884 247.6 873.484 247.6C877.884 247.6 881.784 247.9 885.184 248.5C888.784 249.1 891.784 250.3 894.184 252.1C896.584 253.9 898.384 256.4 899.584 259.6C900.984 262.6 901.684 266.6 901.684 271.6V362.8C901.684 372.8 897.484 380.3 889.084 385.3C882.084 389.7 873.684 393 863.884 395.2C854.284 397.6 843.784 398.8 832.384 398.8C821.584 398.8 811.584 397.6 802.384 395.2C793.384 392.8 785.584 389.1 778.984 384.1C772.384 379.1 767.284 372.7 763.684 364.9C760.084 356.9 758.284 347.3 758.284 336.1V250.3ZM983.893 393.7C981.893 394.3 978.693 394.9 974.293 395.5C970.093 396.1 965.693 396.4 961.093 396.4C956.693 396.4 952.693 396.1 949.093 395.5C945.693 394.9 942.793 393.7 940.393 391.9C937.993 390.1 936.093 387.7 934.693 384.7C933.493 381.5 932.893 377.4 932.893 372.4V282.4C932.893 277.8 933.693 273.9 935.293 270.7C937.093 267.3 939.593 264.3 942.793 261.7C945.993 259.1 949.893 256.8 954.493 254.8C959.293 252.6 964.393 250.7 969.793 249.1C975.193 247.5 980.793 246.3 986.593 245.5C992.393 244.5 998.193 244 1003.99 244C1013.59 244 1021.19 245.9 1026.79 249.7C1032.39 253.3 1035.19 259.3 1035.19 267.7C1035.19 270.5 1034.79 273.3 1033.99 276.1C1033.19 278.7 1032.19 281.1 1030.99 283.3C1026.79 283.3 1022.49 283.5 1018.09 283.9C1013.69 284.3 1009.39 284.9 1005.19 285.7C1000.99 286.5 996.993 287.4 993.193 288.4C989.593 289.2 986.493 290.2 983.893 291.4V393.7ZM1056.83 198.7C1058.83 198.1 1062.03 197.5 1066.43 196.9C1070.83 196.1 1075.33 195.7 1079.93 195.7C1084.33 195.7 1088.23 196 1091.63 196.6C1095.23 197.2 1098.23 198.4 1100.63 200.2C1103.03 202 1104.83 204.5 1106.03 207.7C1107.23 210.7 1107.83 214.7 1107.83 219.7V249.1C1112.83 247.1 1117.53 245.7 1121.93 244.9C1126.53 244.1 1131.53 243.7 1136.93 243.7C1146.53 243.7 1155.63 245.4 1164.23 248.8C1172.83 252.2 1180.43 257.2 1187.03 263.8C1193.63 270.2 1198.83 278.2 1202.63 287.8C1206.43 297.4 1208.33 308.5 1208.33 321.1C1208.33 334.1 1206.33 345.5 1202.33 355.3C1198.53 364.9 1193.13 372.9 1186.13 379.3C1179.13 385.7 1170.53 390.6 1160.33 394C1150.33 397.2 1139.23 398.8 1127.03 398.8C1113.83 398.8 1102.63 397.2 1093.43 394C1084.23 391 1076.43 387.2 1070.03 382.6C1061.23 376.4 1056.83 368.4 1056.83 358.6V198.7ZM1127.03 358.6C1136.23 358.6 1143.33 355.5 1148.33 349.3C1153.53 342.9 1156.13 333.5 1156.13 321.1C1156.13 308.5 1153.53 299.1 1148.33 292.9C1143.13 286.7 1136.13 283.6 1127.33 283.6C1123.33 283.6 1119.83 284 1116.83 284.8C1114.03 285.6 1110.93 286.8 1107.53 288.4V353.8C1109.73 355.2 1112.33 356.4 1115.33 357.4C1118.53 358.2 1122.43 358.6 1127.03 358.6ZM1384.09 321.1C1384.09 333.5 1382.19 344.6 1378.39 354.4C1374.59 364 1369.19 372.1 1362.19 378.7C1355.39 385.3 1347.19 390.3 1337.59 393.7C1327.99 397.1 1317.29 398.8 1305.49 398.8C1293.69 398.8 1282.99 397 1273.39 393.4C1263.79 389.8 1255.49 384.7 1248.49 378.1C1241.69 371.3 1236.39 363.1 1232.59 353.5C1228.79 343.9 1226.89 333.1 1226.89 321.1C1226.89 309.3 1228.79 298.6 1232.59 289C1236.39 279.4 1241.69 271.3 1248.49 264.7C1255.49 257.9 1263.79 252.7 1273.39 249.1C1282.99 245.5 1293.69 243.7 1305.49 243.7C1317.29 243.7 1327.99 245.6 1337.59 249.4C1347.19 253 1355.39 258.2 1362.19 265C1369.19 271.6 1374.59 279.7 1378.39 289.3C1382.19 298.9 1384.09 309.5 1384.09 321.1ZM1279.09 321.1C1279.09 333.3 1281.39 342.7 1285.99 349.3C1290.79 355.7 1297.39 358.9 1305.79 358.9C1314.19 358.9 1320.59 355.6 1324.99 349C1329.59 342.4 1331.89 333.1 1331.89 321.1C1331.89 309.1 1329.59 299.9 1324.99 293.5C1320.39 286.9 1313.89 283.6 1305.49 283.6C1297.09 283.6 1290.59 286.9 1285.99 293.5C1281.39 299.9 1279.09 309.1 1279.09 321.1ZM1475.31 182.18C1488.23 182.18 1499.67 183.88 1509.65 187.28C1519.62 190.453 1528.12 194.873 1535.15 200.54C1542.17 206.207 1547.5 212.893 1551.13 220.6C1554.75 228.307 1556.57 236.58 1556.57 245.42C1556.57 269.22 1543.08 291.887 1516.11 313.42L1471.57 349.12H1553.17C1554.53 351.613 1555.77 354.787 1556.91 358.64C1558.27 362.493 1558.95 366.687 1558.95 371.22C1558.95 379.38 1557.13 385.273 1553.51 388.9C1549.88 392.3 1545.12 394 1539.23 394H1421.25C1416.26 390.6 1412.29 386.293 1409.35 381.08C1406.63 375.64 1405.27 369.293 1405.27 362.04C1405.27 354.333 1406.85 347.873 1410.03 342.66C1413.2 337.22 1416.71 332.913 1420.57 329.74L1467.49 289.62C1473.38 284.633 1478.25 280.213 1482.11 276.36C1485.96 272.28 1489.02 268.653 1491.29 265.48C1493.78 262.307 1495.48 259.36 1496.39 256.64C1497.52 253.92 1498.09 251.313 1498.09 248.82C1498.09 242.473 1495.25 237.487 1489.59 233.86C1484.15 230.233 1477.35 228.42 1469.19 228.42C1460.12 228.42 1451.96 229.893 1444.71 232.84C1437.68 235.56 1431.79 238.507 1427.03 241.68C1423.17 238.96 1420 235.56 1417.51 231.48C1415.01 227.4 1413.77 222.64 1413.77 217.2C1413.77 205.413 1419.32 196.687 1430.43 191.02C1441.53 185.127 1456.49 182.18 1475.31 182.18ZM1707 290.64C1707 270.693 1704.06 255.28 1698.16 244.4C1692.5 233.52 1684.34 228.08 1673.68 228.08C1663.03 228.08 1654.87 233.52 1649.2 244.4C1643.76 255.28 1641.04 270.693 1641.04 290.64C1641.04 310.587 1643.76 326.113 1649.2 337.22C1654.87 348.1 1663.03 353.54 1673.68 353.54C1684.34 353.54 1692.5 348.1 1698.16 337.22C1704.06 326.113 1707 310.587 1707 290.64ZM1765.14 290.64C1765.14 308.093 1762.88 323.62 1758.34 337.22C1753.81 350.82 1747.46 362.267 1739.3 371.56C1731.37 380.627 1721.74 387.54 1710.4 392.3C1699.3 397.06 1687.17 399.44 1674.02 399.44C1660.65 399.44 1648.3 397.06 1636.96 392.3C1625.86 387.54 1616.22 380.627 1608.06 371.56C1600.13 362.267 1593.9 350.82 1589.36 337.22C1585.06 323.62 1582.9 308.093 1582.9 290.64C1582.9 273.187 1585.06 257.773 1589.36 244.4C1593.9 230.8 1600.13 219.467 1608.06 210.4C1616.22 201.107 1625.86 194.08 1636.96 189.32C1648.3 184.56 1660.65 182.18 1674.02 182.18C1687.17 182.18 1699.3 184.56 1710.4 189.32C1721.74 194.08 1731.37 201.107 1739.3 210.4C1747.46 219.467 1753.81 230.8 1758.34 244.4C1762.88 257.773 1765.14 273.187 1765.14 290.64ZM1783.8 369.7C1783.8 361.3 1786.4 354.3 1791.6 348.7C1796.8 343.1 1803.9 340.3 1812.9 340.3C1821.9 340.3 1829 343.1 1834.2 348.7C1839.4 354.3 1842 361.3 1842 369.7C1842 378.1 1839.4 385.1 1834.2 390.7C1829 396.3 1821.9 399.1 1812.9 399.1C1803.9 399.1 1796.8 396.3 1791.6 390.7C1786.4 385.1 1783.8 378.1 1783.8 369.7ZM1915.28 393.7C1913.28 394.3 1910.08 394.9 1905.68 395.5C1901.48 396.1 1897.08 396.4 1892.48 396.4C1888.08 396.4 1884.08 396.1 1880.48 395.5C1877.08 394.9 1874.18 393.7 1871.78 391.9C1869.38 390.1 1867.48 387.7 1866.08 384.7C1864.88 381.5 1864.28 377.4 1864.28 372.4V282.4C1864.28 277.8 1865.08 273.9 1866.68 270.7C1868.48 267.3 1870.98 264.3 1874.18 261.7C1877.38 259.1 1881.28 256.8 1885.88 254.8C1890.68 252.6 1895.78 250.7 1901.18 249.1C1906.58 247.5 1912.18 246.3 1917.98 245.5C1923.78 244.5 1929.58 244 1935.38 244C1944.98 244 1952.58 245.9 1958.18 249.7C1963.78 253.3 1966.58 259.3 1966.58 267.7C1966.58 270.5 1966.18 273.3 1965.38 276.1C1964.58 278.7 1963.58 281.1 1962.38 283.3C1958.18 283.3 1953.88 283.5 1949.48 283.9C1945.08 284.3 1940.78 284.9 1936.58 285.7C1932.38 286.5 1928.38 287.4 1924.58 288.4C1920.98 289.2 1917.88 290.2 1915.28 291.4V393.7ZM1987.62 250.3C1989.62 249.7 1992.72 249.1 1996.92 248.5C2001.32 247.9 2005.82 247.6 2010.42 247.6C2014.82 247.6 2018.72 247.9 2022.12 248.5C2025.72 249.1 2028.72 250.3 2031.12 252.1C2033.52 253.9 2035.32 256.4 2036.52 259.6C2037.92 262.6 2038.62 266.6 2038.62 271.6V336.1C2038.62 344.3 2040.62 350.2 2044.62 353.8C2048.62 357.2 2054.42 358.9 2062.02 358.9C2066.62 358.9 2070.32 358.5 2073.12 357.7C2076.12 356.9 2078.42 356.1 2080.02 355.3V250.3C2082.02 249.7 2085.12 249.1 2089.32 248.5C2093.72 247.9 2098.22 247.6 2102.82 247.6C2107.22 247.6 2111.12 247.9 2114.52 248.5C2118.12 249.1 2121.12 250.3 2123.52 252.1C2125.92 253.9 2127.72 256.4 2128.92 259.6C2130.32 262.6 2131.02 266.6 2131.02 271.6V362.8C2131.02 372.8 2126.82 380.3 2118.42 385.3C2111.42 389.7 2103.02 393 2093.22 395.2C2083.62 397.6 2073.12 398.8 2061.72 398.8C2050.92 398.8 2040.92 397.6 2031.72 395.2C2022.72 392.8 2014.92 389.1 2008.32 384.1C2001.72 379.1 1996.62 372.7 1993.02 364.9C1989.42 356.9 1987.62 347.3 1987.62 336.1V250.3Z" fill="white"/>
</g>
<defs>
<filter id="filter0_d_63_2" x="0" y="0.00244141" width="648.733" height="510.193" filterUnits="userSpaceOnUse" color-interpolation-filters="sRGB">
<feFlood flood-opacity="0" result="BackgroundImageFix"/>
<feColorMatrix in="SourceAlpha" type="matrix" values="0 0 0 0 0 0 0 0 0 0 0 0 0 0 0 0 0 0 127 0" result="hardAlpha"/>
<feOffset dy="4"/>
<feGaussianBlur stdDeviation="2"/>
<feComposite in2="hardAlpha" operator="out"/>
<feColorMatrix type="matrix" values="0 0 0 0 0 0 0 0 0 0 0 0 0 0 0 0 0 0 0.25 0"/>
<feBlend mode="normal" in2="BackgroundImageFix" result="effect1_dropShadow_63_2"/>
<feBlend mode="normal" in="SourceGraphic" in2="effect1_dropShadow_63_2" result="shape"/>
</filter>
<filter id="filter1_d_63_2" x="49.7236" y="50.1531" width="599.739" height="410.083" filterUnits="userSpaceOnUse" color-interpolation-filters="sRGB">
<feFlood flood-opacity="0" result="BackgroundImageFix"/>
<feColorMatrix in="SourceAlpha" type="matrix" values="0 0 0 0 0 0 0 0 0 0 0 0 0 0 0 0 0 0 127 0" result="hardAlpha"/>
<feOffset dy="4"/>
<feGaussianBlur stdDeviation="2"/>
<feComposite in2="hardAlpha" operator="out"/>
<feColorMatrix type="matrix" values="0 0 0 0 0 0 0 0 0 0 0 0 0 0 0 0 0 0 0.25 0"/>
<feBlend mode="normal" in2="BackgroundImageFix" result="effect1_dropShadow_63_2"/>
<feBlend mode="normal" in="SourceGraphic" in2="effect1_dropShadow_63_2" result="shape"/>
</filter>
<filter id="filter2_d_63_2" x="99.4434" y="100.004" width="550.02" height="310.193" filterUnits="userSpaceOnUse" color-interpolation-filters="sRGB">
<feFlood flood-opacity="0" result="BackgroundImageFix"/>
<feColorMatrix in="SourceAlpha" type="matrix" values="0 0 0 0 0 0 0 0 0 0 0 0 0 0 0 0 0 0 127 0" result="hardAlpha"/>
<feOffset dy="4"/>
<feGaussianBlur stdDeviation="2"/>
<feComposite in2="hardAlpha" operator="out"/>
<feColorMatrix type="matrix" values="0 0 0 0 0 0 0 0 0 0 0 0 0 0 0 0 0 0 0.25 0"/>
<feBlend mode="normal" in2="BackgroundImageFix" result="effect1_dropShadow_63_2"/>
<feBlend mode="normal" in="SourceGraphic" in2="effect1_dropShadow_63_2" result="shape"/>
</filter>
<filter id="filter3_d_63_2" x="170.989" y="169.303" width="163.4" height="192.2" filterUnits="userSpaceOnUse" color-interpolation-filters="sRGB">
<feFlood flood-opacity="0" result="BackgroundImageFix"/>
<feColorMatrix in="SourceAlpha" type="matrix" values="0 0 0 0 0 0 0 0 0 0 0 0 0 0 0 0 0 0 127 0" result="hardAlpha"/>
<feOffset dy="4"/>
<feGaussianBlur stdDeviation="2"/>
<feComposite in2="hardAlpha" operator="out"/>
<feColorMatrix type="matrix" values="0 0 0 0 0 0 0 0 0 0 0 0 0 0 0 0 0 0 0.25 0"/>
<feBlend mode="normal" in2="BackgroundImageFix" result="effect1_dropShadow_63_2"/>
<feBlend mode="normal" in="SourceGraphic" in2="effect1_dropShadow_63_2" result="shape"/>
</filter>
<filter id="filter4_d_63_2" x="585.002" y="182.18" width="1550.02" height="225.26" filterUnits="userSpaceOnUse" color-interpolation-filters="sRGB">
<feFlood flood-opacity="0" result="BackgroundImageFix"/>
<feColorMatrix in="SourceAlpha" type="matrix" values="0 0 0 0 0 0 0 0 0 0 0 0 0 0 0 0 0 0 127 0" result="hardAlpha"/>
<feOffset dy="4"/>
<feGaussianBlur stdDeviation="2"/>
<feComposite in2="hardAlpha" operator="out"/>
<feColorMatrix type="matrix" values="0 0 0 0 0 0 0 0 0 0 0 0 0 0 0 0 0 0 0.25 0"/>
<feBlend mode="normal" in2="BackgroundImageFix" result="effect1_dropShadow_63_2"/>
<feBlend mode="normal" in="SourceGraphic" in2="effect1_dropShadow_63_2" result="shape"/>
</filter>
</defs>
</svg>
